<svg xmlns="http://www.w3.org/2000/svg" width="20" height="20"><path d="M10 1.801c2.672 0 2.988.012 4.039.059.977.043 1.504.207 1.855.344.465.18.801.398 1.148.746.352.352.566.684.75 1.148.137.352.301.883.344 1.855.047 1.055.059 1.371.059 4.039s-.012 2.988-.059 4.039c-.043.977-.207 1.504-.344 1.855-.18.465-.398.801-.746 1.148a3.142 3.142 0 01-1.148.75c-.352.137-.883.301-1.855.344-1.055.047-1.371.059-4.039.059s-2.988-.012-4.039-.059c-.977-.043-1.504-.207-1.855-.344a3.084 3.084 0 01-1.148-.746 3.142 3.142 0 01-.75-1.148c-.137-.352-.301-.883-.344-1.855-.047-1.055-.059-1.371-.059-4.039s.012-2.988.059-4.039c.043-.977.207-1.504.344-1.855.18-.465.398-.801.746-1.148a3.142 3.142 0 011.148-.75c.352-.137.883-.301 1.855-.344 1.051-.047 1.367-.059 4.039-.059zM10 0C7.285 0 6.945.012 5.879.059 4.816.106 4.086.278 3.453.524A4.884 4.884 0 001.68 1.68 4.894 4.894 0 00.524 3.45C.278 4.087.106 4.813.059 5.876.012 6.946 0 7.286 0 10.001s.012 3.055.059 4.121c.047 1.063.219 1.793.465 2.426.258.66.598 1.219 1.156 1.773a4.882 4.882 0 001.77 1.152c.637.246 1.363.418 2.426.465 1.066.047 1.406.059 4.121.059s3.055-.012 4.121-.059c1.062-.047 1.793-.219 2.426-.465.656-.254 1.215-.598 1.77-1.152s.898-1.113 1.152-1.77c.246-.637.418-1.363.465-2.426.047-1.066.059-1.406.059-4.121s-.012-3.055-.059-4.121c-.047-1.063-.219-1.793-.465-2.426a4.673 4.673 0 00-1.145-1.777 4.882 4.882 0 00-1.77-1.152C15.914.282 15.188.11 14.125.063 13.055.012 12.715 0 10 0z"/><path d="M10 4.863c-2.836 0-5.137 2.301-5.137 5.137S7.164 15.137 10 15.137s5.137-2.301 5.137-5.137A5.138 5.138 0 0010 4.863zm0 8.469a3.332 3.332 0 110-6.665 3.332 3.332 0 010 6.665zm6.539-8.672a1.2 1.2 0 11-2.398 0 1.2 1.2 0 012.398 0z"/></svg>