<svg xmlns="http://www.w3.org/2000/svg" width="20" height="20"><path d="M20 4.422a8.103 8.103 0 01-2.355.645 4.129 4.129 0 001.805-2.27 8.258 8.258 0 01-2.605.996A4.102 4.102 0 0013.849 2.5a4.101 4.101 0 00-4.102 4.102c0 .32.035.633.105.934a11.647 11.647 0 01-8.457-4.289A4.098 4.098 0 00.84 5.309c0 1.422.723 2.68 1.824 3.414a4.105 4.105 0 01-1.859-.512v.051a4.103 4.103 0 003.293 4.023 4.101 4.101 0 01-1.855.071 4.117 4.117 0 003.832 2.852 8.227 8.227 0 01-6.078 1.699 11.606 11.606 0 006.293 1.844c7.547 0 11.676-6.254 11.676-11.676 0-.18-.004-.355-.012-.531a8.26 8.26 0 002.047-2.121z"/></svg>